# xmcd
#
# Track frame offsets: 
#        150
#        14636
#        29478
#        36248
#        50288
#        57728
#        64361
#        95605
#        108185
#        129150
#        142100
#        158758
#        174767
#        191180
#        214367
#        230615
#        244408
#
# Disc length: 3391 seconds
#
# Revision: 1
# Processed by: cddbd v1.4PL0 Copyright (c) Steve Scherf et al.
# Submitted via: ExactAudioCopy v0.95a3
#
DISCID=000d3d11
DTITLE=Lonnie Johnson - The Unsung Blues Legend
DYEAR=1965
DGENRE=
TTITLE0=This Love Of Mine
TTITLE1=September Song
TTITLE2=Don't Cry Baby
TTITLE3=Solitude
TTITLE4=I'm Confessin' (That I Love You)
TTITLE5=I Can't Give You Anything But Love Baby
TTITLE6=St.Louis Blues
TTITLE7=New Orleans Blues
TTITLE8=Careless Love
TTITLE9=Danny Boy [guitar solo]
TTITLE10=Backwater Blues
TTITLE11=My Mother's Eyes
TTITLE12=Prisoner Of Love
TTITLE13=There's Been Some Changes Made
TTITLE14=Jelly Jelly
TTITLE15=Summertime
TTITLE16=Rockin' Chair [fade out]
EXTD=
EXTT0=
EXTT1=
EXTT2=
EXTT3=
EXTT4=
EXTT5=
EXTT6=
EXTT7=
EXTT8=
EXTT9=
EXTT10=
EXTT11=
EXTT12=
EXTT13=
EXTT14=
EXTT15=
EXTT16=
PLAYORDER=
